<svg xmlns="http://www.w3.org/2000/svg" version="1.1" xmlns:xlink="http://www.w3.org/1999/xlink" xmlns:svgjs="http://svgjs.dev/svgjs" width="1000" height="343" viewBox="0 0 1000 343"><g transform="matrix(1,0,0,1,-0.6060590540031399,0.12489128805540872)"><svg viewBox="0 0 396 136" data-background-color="#daeff4" preserveAspectRatio="xMidYMid meet" height="343" width="1000" xmlns="http://www.w3.org/2000/svg" xmlns:xlink="http://www.w3.org/1999/xlink"><g id="tight-bounds" transform="matrix(1,0,0,1,0.23999951547142473,-0.04951957777123539)"><svg viewBox="0 0 395.52 136.09902973788218" height="136.09902973788218" width="395.52"><g><svg viewBox="0 0 562.7596229573944 193.6464367419038" height="136.09902973788218" width="395.52"><g transform="matrix(1,0,0,1,0,61.79311042198233)"><svg viewBox="0 0 395.52 70.06021589793916" height="70.06021589793916" width="395.52"><g id="textblocktransform"><svg viewBox="0 0 395.52 70.06021589793916" height="70.06021589793916" width="395.52" id="textblock"><g><svg viewBox="0 0 395.52 70.06021589793916" height="70.06021589793916" width="395.52"><g transform="matrix(1,0,0,1,0,0)"><svg width="395.52" viewBox="2.1500000953674316 -35.25 203.79000854492188 36.099998474121094" height="70.06021589793916" data-palette-color="#010c80"><path d="M5.15-11.45Q5.2-7.95 6.85-5.05 8.5-2.15 13.45-2.15L13.45-2.15Q15.6-2.15 17.43-2.7 19.25-3.25 21.4-4.5L21.4-4.5 22.7-2.4Q20.7-1.05 18.25-0.25 15.8 0.55 13.25 0.55L13.25 0.55Q8 0.55 5.08-2.83 2.15-6.2 2.15-11.7L2.15-11.7Q2.15-15.25 3.45-18.38 4.75-21.5 7.3-23.45 9.85-25.4 13.3-25.4L13.3-25.4Q16.2-25.4 18.57-24.03 20.95-22.65 22.33-20.28 23.7-17.9 23.7-15L23.7-15Q23.7-14.2 23.65-13.58 23.6-12.95 23.55-12.5L23.55-12.5 23.45-11.45 5.15-11.45ZM5.3-14.15L20.65-14.15Q20.7-14.5 20.7-15.15L20.7-15.15Q20.7-17.25 19.7-18.98 18.7-20.7 17-21.7 15.3-22.7 13.25-22.7L13.25-22.7Q10.2-22.7 8.03-20.48 5.85-18.25 5.3-14.15L5.3-14.15ZM29.6-13.9L29.6-16.7 44.45-16.7 44.45-13.9 29.6-13.9ZM76.7-2.8L77.95-0.35Q76.95 0.35 75.75 0.35L75.75 0.35Q74.3 0.35 73.45-0.23 72.59-0.8 72-1.6L72-1.6 66.05-9.65Q64.3-12 62.97-12.83 61.65-13.65 59.34-13.8L59.34-13.8 59.34-16.6 63.7-16.6Q66.95-16.6 68.9-18.55 70.84-20.5 70.84-23.85L70.84-23.85Q70.84-27.15 69-29.28 67.15-31.4 64.25-31.4L64.25-31.4 56.25-31.4 56.25 0 53.25 0 53.25-34.2 64.45-34.2Q67.15-34.2 69.27-32.88 71.4-31.55 72.62-29.25 73.84-26.95 73.84-24.15L73.84-24.15Q73.84-21.5 72.8-19.45 71.75-17.4 70.3-16.2 68.84-15 67.59-14.75L67.59-14.75Q66.75-14.6 65.62-14.63 64.5-14.65 64.45-14.65L64.45-14.65Q66.05-14.3 67.2-12.8L67.2-12.8 69.2-10.05Q70.09-8.85 71.92-6.35 73.75-3.85 74.3-3.25L74.3-3.25Q74.65-2.85 74.92-2.68 75.2-2.5 75.7-2.5L75.7-2.5Q76.34-2.5 76.7-2.8L76.7-2.8ZM84.39 0L84.39-34.2 106.34-34.2 106.34-31.4 87.39-31.4 87.39-19.5 101.34-19.5 101.34-16.7 87.39-16.7 87.39-2.8 107.34-2.8 107.34 0 84.39 0ZM111.04 0L125.64-35.15 126.59-35.15 141.29 0 138.09 0 133.24-11.35 118.99-11.35 114.24 0 111.04 0ZM132.04-14.15L127.34-25.85Q126.54-27.85 126.09-29.75L126.09-29.75Q125.49-27.4 124.89-25.85L124.89-25.85 120.19-14.15 132.04-14.15ZM160.59 0.85Q155.79 0.85 151.94-1.55 148.09-3.95 145.89-8 143.69-12.05 143.69-16.8L143.69-16.8Q143.69-21.65 145.99-25.9 148.29-30.15 152.24-32.7 156.19-35.25 160.79-35.25L160.79-35.25Q164.99-35.25 168.66-33.35 172.34-31.45 172.54-26.55L172.54-26.55 169.54-26.55Q169.39-29.85 166.51-31.05 163.64-32.25 160.54-32.25L160.54-32.25Q156.79-32.25 153.59-30.03 150.39-27.8 148.54-24.2 146.69-20.6 146.69-16.65L146.69-16.65Q146.69-12.85 148.49-9.53 150.29-6.2 153.46-4.2 156.64-2.2 160.64-2.2L160.64-2.2Q164.29-2.2 167.41-3.85 170.54-5.5 172.34-8.3L172.34-8.3 174.79-6.6Q172.44-3.05 168.64-1.1 164.84 0.85 160.59 0.85L160.59 0.85ZM181.49 0L181.49-34.2 184.49-34.2 184.49-19.2 202.94-19.2 202.94-34.2 205.94-34.2 205.94 0 202.94 0 202.94-16.4 184.49-16.4 184.49 0 181.49 0Z" opacity="1" transform="matrix(1,0,0,1,0,0)" fill="#010c80" class="wordmark-text-0" data-fill-palette-color="primary" id="text-0"></path></svg></g></svg></g></svg></g></svg></g><g transform="matrix(1,0,0,1,412.0595355283219,0)"><svg viewBox="0 0 150.7000874290725 193.6464367419038" height="193.6464367419038" width="150.7000874290725"><g><svg xmlns="http://www.w3.org/2000/svg" xmlns:xlink="http://www.w3.org/1999/xlink" version="1.1" x="0" y="0" viewBox="15.833000183105469 8.748998641967773 64.69599914550781 83.13299560546875" enable-background="new 0 0 100 100" xml:space="preserve" height="193.6464367419038" width="150.7000874290725" class="icon-icon-0" data-fill-palette-color="accent" id="icon-0"><path fill="none" stroke="#010C80" stroke-miterlimit="10" d="M48.182 75.097"></path><path d="M62.861 29.833c-5.929 0-11.434 3.014-14.68 7.863-3.246-4.85-8.751-7.863-14.68-7.863-10.567 0-17.668 7.101-17.668 17.668 0 11.467 3.539 25.511 29.798 42.736l2.55 1.645 2.56-1.651C76.99 73.012 80.529 58.968 80.529 47.501 80.529 36.934 73.429 29.833 62.861 29.833zM49.104 87.716l-0.923 0.596-0.914-0.589C22.212 71.286 18.834 58.167 18.834 47.501c0-8.91 5.758-14.668 14.668-14.668 5.47 0 10.499 3.099 13.009 7.939l-7.833 16.394c-0.107 0.2-1.019 2.005 0 3.706 0.844 1.411 2.662 2.127 5.47 2.127 0.002 0 0.006 0 0.008 0 0.287-0.013 2.304-0.142 3.938-1.238 1.084 0.896 2.319 1.251 3.068 1.309 0.209 0.009 0.411 0.013 0.609 0.013 2.411 0 4.054-0.643 4.889-1.914 1.088-1.657 0.252-3.498 0.182-3.639l-2.264-5.291c0.108-0.176 0.182-0.297 0.201-0.328 0.433-0.707 0.21-1.63-0.497-2.062-0.704-0.432-1.63-0.211-2.062 0.497-0.01 0.016-0.237 0.387-0.586 0.955 0 0.001-0.001 0.001-0.001 0.002-1.171 1.905-3.771 6.123-4.677 7.455-0.001 0.002-0.002 0.004-0.004 0.006-0.003 0.005-0.008 0.012-0.011 0.017-0.618 0.906-2.36 1.192-2.852 1.22-2.356 0-2.795-0.596-2.837-0.664-0.129-0.207 0.013-0.639 0.1-0.814l6.803-14.234 0.025 0.056 1.348-2.929 0.006-0.012c0-0.001 0-0.001 0.001-0.002l0.008-0.018c2.392-5.193 7.619-8.55 13.317-8.55 8.91 0 14.668 5.758 14.668 14.668C77.529 58.167 74.151 71.286 49.104 87.716zM52.653 55.364l1.459 3.408c0.023 0.048 0.186 0.528 0.04 0.75-0.159 0.241-0.94 0.635-2.792 0.554-0.036-0.004-0.69-0.082-1.305-0.571C50.768 58.397 51.759 56.81 52.653 55.364zM32.351 26.452c-4.88 0-8.851-3.971-8.851-8.852 0-4.88 3.971-8.851 8.851-8.851 4.881 0 8.852 3.971 8.852 8.851C41.202 22.481 37.231 26.452 32.351 26.452zM32.351 11.75c-3.226 0-5.851 2.625-5.851 5.851 0 3.227 2.625 5.852 5.851 5.852 3.227 0 5.852-2.625 5.852-5.852C38.202 14.375 35.577 11.75 32.351 11.75zM63.062 26.452c-4.88 0-8.851-3.971-8.851-8.852 0-4.88 3.971-8.851 8.851-8.851 4.881 0 8.852 3.971 8.852 8.851C71.914 22.481 67.943 26.452 63.062 26.452zM63.062 11.75c-3.226 0-5.851 2.625-5.851 5.851 0 3.227 2.625 5.852 5.851 5.852 3.227 0 5.852-2.625 5.852-5.852C68.914 14.375 66.289 11.75 63.062 11.75z" fill="#010c80" data-fill-palette-color="accent"></path></svg></g></svg></g></svg></g><defs></defs></svg><rect width="395.52" height="136.09902973788218" fill="none" stroke="none" visibility="hidden"></rect></g></svg></g></svg>